<?xml version="1.0" encoding="iso-8859-1"?>
<!-- Generator: Adobe Illustrator 16.0.0, SVG Export Plug-In . SVG Version: 6.00 Build 0) -->
<!DOCTYPE svg PUBLIC "-//W3C//DTD SVG 1.1//EN" "http://www.w3.org/Graphics/SVG/1.1/DTD/svg11.dtd">
<svg xmlns="http://www.w3.org/2000/svg" xmlns:xlink="http://www.w3.org/1999/xlink" version="1.1" id="Capa_1" x="0px" y="0px" width="64px" height="64px" viewBox="0 0 30.55 30.55" style="enable-background:new 0 0 30.55 30.55;" xml:space="preserve">
  <g>
    <path
      d="M1.267,17.79C0.003,7.751,3.022,4.618,3.022,4.618S2.694,4.813,2.884,6.191C2.898,6.285,2.914,6.37,2.929,6.444   c0.234,1.003,0.806,0.21,0.806,0.21C7.564,0.047,12.548,0,12.548,0l-1.646,1.371C9.521,2.743,11.158,2.88,11.158,2.88l3.156-2.152   c0.116,3.936,3.278,0.275,3.278,0.275l0.06,1.641c0.331-0.59,2.17-1.435,2.17-1.435c1.232,3.021,3.539,0.146,3.539,0.146   c-0.524,0.325-0.6,2.555-0.6,2.555c0.779,1.97,2.892-1.432,2.892-1.432c0.785,0.658,0.64,4.07,0.64,4.07   c0.721,0.134,1.256-2.553,1.256-2.553c0.589,0.396,0.704,4.79,0.704,4.79c0.651,0.461,1.315-1.7,1.315-1.7   c0.25,3.28-1.486,11.797-1.486,11.797c-0.929,2.097-1.359,11.668-1.359,11.668c-0.785-0.396-1.043-1.709-1.043-1.709   c0.679-5.375,0.718-9.241-0.344-12.067c-2.306-6.129-10.748-1.748-10.748-1.748C4.769,10.66,3.95,18.658,3.95,18.658   c0.488,9.312-1.223,10.879-1.223,10.879S1.634,20.727,1.267,17.79z M24.998,21.904c0,2.142-0.645,4.328-3.085,4.328   c-2.443,0-5.762-2.188-5.762-4.328c0-0.395,0.087-0.729,0.212-1.039H14.19c0.125,0.31,0.212,0.646,0.212,1.039   c0,2.142-3.317,4.328-5.76,4.328c-2.442,0-3.086-2.188-3.086-4.328c0-1.989,1.717-2.84,3.919-2.953v-0.02h11.494v0.016   C23.222,19.038,24.998,19.883,24.998,21.904z M16.662,20.333c0.201-0.271,0.445-0.504,0.75-0.69h-4.271   c0.304,0.188,0.548,0.422,0.75,0.69H16.662z"
      fill="#666666"/>
  </g>
  <g>
		<path
      d="M1.267,17.79C0.003,7.751,3.022,4.618,3.022,4.618S2.694,4.813,2.884,6.191C2.898,6.285,2.914,6.37,2.929,6.444   c0.234,1.003,0.806,0.21,0.806,0.21C7.564,0.047,12.548,0,12.548,0l-1.646,1.371C9.521,2.743,11.158,2.88,11.158,2.88l3.156-2.152   c0.116,3.936,3.278,0.275,3.278,0.275l0.06,1.641c0.331-0.59,2.17-1.435,2.17-1.435c1.232,3.021,3.539,0.146,3.539,0.146   c-0.524,0.325-0.6,2.555-0.6,2.555c0.779,1.97,2.892-1.432,2.892-1.432c0.785,0.658,0.64,4.07,0.64,4.07   c0.721,4.79,0.704,4.79c0.651,0.461,1.315-1.7,1.315-1.7   c0.25,3.28-1.486,11.797-1.486,11.797c-0.929,2.097-1.359,11.668-1.359,11.668c-0.785-0.396-1.043-1.709-1.043-1.709   c0.679-5.375,0.718-9.241-0.344-12.067c-2.306-6.129-10.748-1.748-10.748-1.748C4.769,10.66,3.95,18.658,3.95,18.658   c0.488,9.312-1.223,10.879-1.223,10.879S1.634,20.727,1.267,17.79z M24.998,21.904c0,2.142-0.645,4.328-3.085,4.328   c-2.443,0-5.762-2.188-5.762-4.328c0-0.395,0.087-0.729,0.212-1.039H14.19c0.125,0.31,0.212,0.646,0.212,1.039   c0,2.142-3.317,4.328-5.76,4.328c-2.442,0-3.086-2.188-3.086-4.328c0-1.989,1.717-2.84,3.919-2.953v-0.02h11.494v0.016   C23.222,19.038,24.998,19.883,24.998,21.904z M16.662,20.333c0.201-0.271,0.445-0.504,0.75-0.69h-4.271   c0.304,0.188,0.548,0.422,0.75,0.69H16.662z"
      fill="#afafaf"/>
  </g>
</svg>
