<?xml version="1.0" encoding="utf-8"?>
<!-- Generator: Adobe Illustrator 22.1.0, SVG Export Plug-In . SVG Version: 6.00 Build 0)  -->
<svg version="1.1" id="Capa_1" xmlns="http://www.w3.org/2000/svg" xmlns:xlink="http://www.w3.org/1999/xlink" x="0px" y="0px"
	 viewBox="0 0 48 48" style="enable-background:new 0 0 48 48;" xml:space="preserve">
<style type="text/css">
	.st0{fill:#C1C4C7;}
	.st1{opacity:0.1;enable-background:new    ;}
	.st2{fill:#464D59;}
	.st3{opacity:5.000000e-02;enable-background:new    ;}
	.st4{fill:#FFFFFF;}
	.st5{fill:#F27281;}
	.st6{fill:none;}
</style>
<path class="st0" d="M42.8,24.4c0-11.1-8.1-17.9-18.1-17.9S6.6,13.3,6.6,24.4s8.1,15.6,18.1,15.6S42.8,35.5,42.8,24.4z"/>
<path class="st1" d="M28.7,7.8c-1.7,3.8-1.1,10.7,10.9,7.8C37.3,11.6,33.4,8.9,28.7,7.8z"/>
<g>
	<path class="st2" d="M15.7,22c-0.4,0-0.7-0.3-0.7-0.7v-1.4c0-0.4,0.3-0.7,0.7-0.7c0.4,0,0.7,0.3,0.7,0.7v1.4
		C16.3,21.6,16,22,15.7,22z"/>
	<path class="st2" d="M32.3,22c-0.4,0-0.7-0.3-0.7-0.7v-1.4c0-0.4,0.3-0.7,0.7-0.7c0.4,0,0.7,0.3,0.7,0.7v1.4
		C33,21.6,32.7,22,32.3,22z"/>
</g>
<path class="st3" d="M27.1,37.9c4.5,0,8.7-0.3,12-1c-35.7,3-25-9.3-15.5-12.1c-9.1,0.5-15.9,3.1-15.9,6.9
	C7.6,36.2,16.3,37.9,27.1,37.9z"/>
<path class="st4" d="M24,37.9c4.2,0,8.6-1.5,7.6-8.2c-1.2-8.4-5.1-11-7.6-11s-6.3,2.6-7.6,11C15.4,36.5,19.8,37.9,24,37.9z"/>
<path class="st5" d="M24,32.3c-0.9,0-1.7-0.3-2.4-0.8v3.3c0,1.3,1.1,2.4,2.4,2.4c1.3,0,2.4-1.1,2.4-2.4v-3.3
	C25.7,32,24.9,32.3,24,32.3z"/>
<path class="st1" d="M24,35.3c-0.4,0-0.7-0.3-0.7-0.7v-2.2c0-0.4,0.3-0.7,0.7-0.7s0.7,0.3,0.7,0.7v2.2C24.7,34.9,24.4,35.3,24,35.3z
	"/>
<g>
	<path class="st2" d="M24,33c-1.4,0-2.7-0.6-3.6-1.6c-0.3-0.3-0.2-0.7,0.1-1c0.3-0.3,0.7-0.2,1,0.1c0.6,0.7,1.6,1.2,2.5,1.2
		c1,0,1.9-0.4,2.5-1.2c0.3-0.3,0.7-0.3,1-0.1c0.3,0.3,0.3,0.7,0.1,1C26.7,32.4,25.4,33,24,33z"/>
	<path class="st2" d="M24,33c-0.4,0-0.7-0.3-0.7-0.7v-3.1c0-0.4,0.3-0.7,0.7-0.7s0.7,0.3,0.7,0.7v3.1C24.7,32.7,24.4,33,24,33z"/>
	<path class="st2" d="M24,29.2c1.6,0,3.5-1.9,3.7-3.6c0.2-1.7-1.6-2.2-3.7-2.2s-3.9,0.5-3.7,2.2C20.5,27.3,22.4,29.2,24,29.2z"/>
	<path class="st2" d="M4.2,24.8L4.2,24.8c-2-0.2-3.7-1.8-4.1-3.8l0,0c-0.5-2.5,0.4-5.1,2.3-6.9l3.2-3c1.5-1.4,3.6-2,5.7-1.7l0,0
		c1.9,0.3,2.9,2.3,2.1,4.1l-3.9,8.3C8.6,23.9,6.5,25.1,4.2,24.8z"/>
</g>
<path class="st6" d="M2.8,13.8l-0.4,0.3c-1.9,1.7-2.8,4.3-2.3,6.9l0,0c0.4,2,2,3.6,4.1,3.8l0,0c2.2,0.3,4.4-0.9,5.4-3l0.3-0.7
	C4,24,1.9,17.3,2.8,13.8z"/>
<path class="st2" d="M43.8,24.8L43.8,24.8c2-0.2,3.7-1.8,4.1-3.8l0,0c0.5-2.5-0.4-5.1-2.3-6.9l-3.2-3c-1.5-1.4-3.6-2-5.7-1.7l0,0
	c-1.9,0.3-2.9,2.3-2.1,4.1l3.9,8.3C39.4,23.9,41.5,25.1,43.8,24.8z"/>
<path class="st1" d="M46.7,23.3c-7.1,0.8-10.3-10.2-10.5-13.7c-1.5,0.6-2.3,2.4-1.6,3.9l3.9,8.3c1,2,3.1,3.2,5.4,3l0,0
	C44.9,24.7,45.9,24.1,46.7,23.3z"/>
<text transform="matrix(1 0 0 1 -58 -151)" style="font-family:'MyriadPro-Regular'; font-size:12px;">Lorem ipsum</text>
<rect x="14.2" y="52.6" class="st6" width="0.7" height="17.8"/>
<rect x="26.4" y="45" class="st6" width="5.4" height="6"/>
<rect x="12.8" y="27.9" class="st6" width="0.9" height="2.6"/>
<path d="M10.2,17c8.3,3.3,14.6,1.9,8.3,3.3"/>
<path d="M36.6,20.6c-6.3-5.3-11.6-3.9-6.3-5.3"/>
</svg>
