<?xml version="1.0" encoding="iso-8859-1"?>
<!-- Generator: Adobe Illustrator 19.0.0, SVG Export Plug-In . SVG Version: 6.00 Build 0)  -->
<svg version="1.1" id="Capa_1" xmlns="http://www.w3.org/2000/svg" xmlns:xlink="http://www.w3.org/1999/xlink" x="0px" y="0px"
	 width="48px" height="48px" viewBox="0 0 436.907 436.907" style="enable-background:new 0 0 436.907 436.907;" xml:space="preserve">
<g>
	<path style="fill:#EA3457;" d="M397.454,317.972c-1.05,0-2.12-0.241-3.12-0.759c-3.347-1.72-4.663-5.833-2.951-9.18l0,0
		c0.09-0.174,8.723-17.388,4.13-31.16c-1.944-5.827-5.984-10.173-12.353-13.3c-8.414-4.12-25.67-0.466-43.95,3.413
		c-40.033,8.487-94.877,20.127-127.107-32.98c-22.333-36.794-14.147-67.934-3.343-87.579c21.357-38.847,66.434-60.467,98-61.094
		c0.046,0,0.094,0,0.14,0c3.707,0,6.746,2.966,6.823,6.694c0.073,3.767-2.924,6.886-6.69,6.96
		c-28.133,0.553-68.106,20.913-86.31,54.019c-9.066,16.486-15.896,42.694,3.053,73.919c27.203,44.82,72.573,35.2,112.604,26.706
		c21.543-4.567,40.146-8.513,52.791-2.313c9.713,4.76,16.217,11.933,19.319,21.306c6.376,19.267-4.497,40.74-4.96,41.646
		C402.316,316.626,399.93,317.972,397.454,317.972z"/>
	<path style="fill:#EA3457;" d="M376.974,290.666c-1.05,0-2.12-0.241-3.12-0.759c-3.347-1.72-4.666-5.833-2.947-9.18
		c0.133-0.266,8.711-17.42,4.127-31.16c-1.944-5.827-5.984-10.173-12.353-13.3c-8.404-4.099-29.034,0.92-50.883,6.24
		c-47.406,11.566-112.353,27.407-144.531-25.6c-19.504-32.133-10.303-67.994,23.443-91.346c46.769-32.367,98.886-20.9,122.25,8.873
		c2.326,2.966,1.811,7.253-1.157,9.586c-2.959,2.319-7.253,1.819-9.583-1.161c-24.463-31.174-72.89-27.426-103.74-6.074
		c-10.554,7.299-43.139,34.154-19.54,73.04c26.984,44.447,83.893,30.56,129.623,19.42c26.418-6.439,47.273-11.547,60.126-5.233
		c9.713,4.76,16.217,11.933,19.319,21.306c6.376,19.267-4.497,40.74-4.96,41.646C381.836,289.319,379.45,290.666,376.974,290.666z"
		/>
</g>
<rect x="6.827" y="331.093" style="fill:#FFFFFF;" width="122.88" height="68.267"/>
<path style="fill:#602F75;" d="M129.707,406.187H6.827c-3.77,0-6.827-3.053-6.827-6.827v-68.267c0-3.773,3.057-6.827,6.827-6.827
	h122.88c3.77,0,6.827,3.053,6.827,6.827v68.267C136.533,403.133,133.477,406.187,129.707,406.187z M13.653,392.533H122.88V337.92
	H13.653V392.533z"/>
<rect x="129.707" y="331.093" style="fill:#EA3457;" width="27.307" height="68.267"/>
<path style="fill:#602F75;" d="M157.013,406.187h-27.307c-3.77,0-6.827-3.053-6.827-6.827v-68.267c0-3.773,3.057-6.827,6.827-6.827
	h27.307c3.77,0,6.827,3.053,6.827,6.827v68.267C163.84,403.133,160.783,406.187,157.013,406.187z M136.533,392.533h13.653V337.92
	h-13.653V392.533z"/>
<rect x="395.947" y="331.093" style="fill:#EA3457;" width="27.307" height="68.267"/>
<path style="fill:#602F75;" d="M423.253,406.187h-27.307c-3.77,0-6.827-3.053-6.827-6.827v-68.267c0-3.773,3.057-6.827,6.827-6.827
	h27.307c3.77,0,6.827,3.053,6.827,6.827v68.267C430.08,403.133,427.023,406.187,423.253,406.187z M402.773,392.533h13.653V337.92
	h-13.653V392.533z"/>
<polyline style="fill:#FFFFFF;" points="191.174,331.093 395.947,331.093 395.947,399.36 157.013,399.36 157.013,331.093 "/>
<path style="fill:#602F75;" d="M395.947,406.187H157.013c-3.77,0-6.827-3.053-6.827-6.827v-68.267c0-3.773,3.057-6.827,6.827-6.827
	s6.827,3.053,6.827,6.827v61.44h225.28V337.92H191.174c-3.77,0-6.827-3.053-6.827-6.827s3.057-6.827,6.827-6.827h204.773
	c3.77,0,6.827,3.053,6.827,6.827v68.267C402.773,403.133,399.717,406.187,395.947,406.187z"/>
<g>
	<circle style="fill:#FFE600;" cx="348.16" cy="119.467" r="81.92"/>
	<path style="fill:#FFE600;" d="M348.16,208.213c-48.937,0-88.747-39.813-88.747-88.747s39.81-88.747,88.747-88.747
		s88.747,39.813,88.747,88.747S397.097,208.213,348.16,208.213z M348.16,44.373c-41.407,0-75.093,33.686-75.093,75.093
		s33.686,75.093,75.093,75.093s75.093-33.686,75.093-75.093S389.567,44.373,348.16,44.373z"/>
</g>
<g>
	<path style="fill:#EA3457;" d="M305.705,119.248c-12.355-14.954-3.813-38.634,15.485-40.595c0.959-0.097,1.93-0.147,2.915-0.147
		c9.921,0,18.65,5.074,23.757,12.762c5.106-7.689,13.834-12.762,23.757-12.762c0.985,0,1.956,0.049,2.915,0.147
		c19.297,1.959,27.839,25.641,15.485,40.595l-42.155,51.022L305.705,119.248z"/>
	<path style="fill:#EA3457;" d="M347.86,177.101L347.86,177.101c-2.036,0-3.966-0.906-5.263-2.48l-42.153-51.026
		c-7.574-9.16-9.443-21.76-4.883-32.867c4.379-10.673,13.703-17.727,24.94-18.867c1.171-0.119,2.381-0.179,3.603-0.179
		c8.904,0,17.326,3.333,23.757,9.18c7.313-6.647,17.521-10.027,27.38-8.994c11.216,1.133,20.54,8.187,24.921,18.854
		c4.56,11.114,2.69,23.707-4.879,32.874l-42.156,51.026C351.826,176.193,349.897,177.101,347.86,177.101z M324.103,85.333
		c-0.744,0-1.48,0.034-2.203,0.106c-6.25,0.64-11.237,4.453-13.706,10.467c-2.644,6.439-1.58,13.72,2.777,18.993l0,0l36.89,44.653
		l36.893-44.653c4.357-5.274,5.42-12.553,2.777-18.993c-2.47-6.013-7.46-9.827-13.689-10.46c-8.009-0.847-15.836,2.9-20.294,9.6
		c-2.533,3.801-8.841,3.801-11.373,0C338.133,88.967,331.38,85.333,324.103,85.333z"/>
</g>
<rect x="13.653" y="358.4" style="fill:#00E7FF;" width="109.227" height="34.133"/>
<rect x="163.84" y="358.4" style="fill:#FFE600;" width="225.28" height="34.133"/>
<g>
</g>
<g>
</g>
<g>
</g>
<g>
</g>
<g>
</g>
<g>
</g>
<g>
</g>
<g>
</g>
<g>
</g>
<g>
</g>
<g>
</g>
<g>
</g>
<g>
</g>
<g>
</g>
<g>
</g>
</svg>
